<?xml version="1.0" standalone="no"?>
<!DOCTYPE svg PUBLIC "-//W3C//DTD SVG 20010904//EN"
 "http://www.w3.org/TR/2001/REC-SVG-20010904/DTD/svg10.dtd">
<svg version="1.0" xmlns="http://www.w3.org/2000/svg"
 width="500.000000pt" height="500.000000pt" viewBox="0 0 500.000000 500.000000"
 preserveAspectRatio="xMidYMid meet">

<g transform="translate(0.000000,500.000000) scale(0.100000,-0.100000)"
fill="#000000" stroke="none">
<path d="M2465 4098 c-27 -10 -82 -43 -95 -58 -3 -3 -84 -68 -180 -145 -96
-77 -215 -172 -265 -213 -49 -41 -97 -79 -105 -85 -101 -79 -257 -217 -271
-241 -18 -29 -19 -60 -19 -526 0 -494 0 -496 23 -540 26 -52 59 -78 113 -90
44 -11 537 -13 608 -4 62 9 128 66 145 126 8 30 11 122 9 296 l-3 254 -27 21
c-15 12 -39 31 -54 41 l-27 19 29 24 c43 35 44 35 112 82 70 47 82 68 82 144
1 49 3 53 41 80 119 82 66 259 -79 259 -94 0 -159 -70 -149 -159 5 -46 50
-106 89 -119 14 -4 18 -16 18 -58 0 -61 -2 -64 -129 -150 l-84 -57 -77 51 -78
51 5 57 c3 46 0 63 -16 90 -43 68 -130 91 -201 53 -50 -26 -74 -73 -74 -139 1
-46 6 -58 33 -86 43 -45 98 -61 152 -45 35 11 44 10 72 -6 68 -38 263 -169
275 -183 8 -11 12 -51 12 -119 l0 -103 -120 0 -120 0 -19 39 c-29 55 -75 81
-146 81 -55 0 -60 -2 -97 -40 -38 -41 -44 -61 -39 -129 9 -130 204 -166 269
-51 l17 30 128 0 127 0 0 -105 c0 -157 28 -145 -355 -145 -302 0 -316 1 -335
20 -19 19 -20 33 -20 505 l0 484 103 83 c56 45 104 85 107 88 16 20 623 505
641 512 17 7 66 -25 165 -107 198 -163 449 -367 554 -449 69 -54 133 -108 143
-118 16 -19 17 -57 17 -497 0 -466 0 -478 -20 -499 -21 -22 -24 -22 -348 -22
-180 0 -332 4 -338 8 -30 20 -34 55 -34 289 0 306 -10 295 166 181 l126 -81
-8 -36 c-28 -124 26 -201 142 -201 33 0 58 7 80 22 43 29 55 51 61 112 9 101
-54 160 -162 153 -57 -4 -63 -2 -119 37 -32 23 -85 59 -117 82 l-59 41 108 72
108 71 48 -16 c60 -21 109 -7 158 43 30 31 33 39 33 98 0 57 -4 67 -29 94 -54
56 -143 66 -204 22 -39 -27 -65 -93 -57 -140 7 -41 28 -22 -223 -194 -57 -39
-108 -79 -113 -89 -6 -12 -9 -123 -7 -292 l3 -273 28 -36 c55 -72 53 -72 422
-72 369 0 367 0 422 72 l28 36 3 509 c2 456 1 512 -14 544 -11 22 -57 66 -128
123 -61 49 -154 123 -206 166 -52 42 -171 138 -265 213 -174 140 -191 154
-228 185 -62 52 -116 71 -162 55z m73 -660 c7 -7 12 -24 12 -38 0 -48 -45 -67
-82 -33 -20 18 -23 36 -8 64 12 22 59 26 78 7z m-548 -228 c11 -11 20 -27 20
-35 0 -20 -36 -55 -57 -55 -25 0 -53 30 -53 56 0 23 33 54 57 54 7 0 22 -9 33
-20z m1093 6 c20 -15 23 -66 5 -84 -17 -17 -54 -15 -72 4 -23 22 -20 60 6 78
27 19 38 19 61 2z m1 -569 c36 -26 16 -97 -27 -97 -48 0 -73 56 -40 92 19 21
42 23 67 5z m-1096 -9 c21 -21 14 -66 -13 -84 -23 -15 -27 -15 -50 0 -27 18
-33 57 -12 81 15 18 59 19 75 3z"/>
<path d="M795 1928 c-80 -29 -140 -94 -151 -163 -9 -60 3 -100 39 -142 40 -45
85 -65 210 -93 137 -31 182 -74 147 -141 -41 -76 -228 -62 -277 21 -20 34 -43
43 -94 38 -56 -5 -53 -62 8 -129 55 -60 104 -82 200 -87 138 -8 227 28 279
109 35 56 36 135 1 188 -34 51 -93 78 -247 112 -127 29 -169 83 -112 146 57
63 181 54 234 -17 19 -26 28 -30 70 -30 43 0 48 3 54 25 15 58 -51 132 -142
160 -56 17 -175 18 -219 3z"/>
<path d="M3106 1746 c-21 -8 -51 -27 -66 -41 l-29 -27 -3 33 c-3 33 -5 34 -51
37 -41 3 -48 0 -56 -20 -13 -35 -14 -633 -1 -658 8 -15 21 -20 53 -20 24 0 48
5 55 12 8 8 12 51 12 126 l0 114 34 -30 c89 -78 249 -39 306 74 22 43 25 62
25 149 0 108 -16 154 -67 202 -51 48 -150 71 -212 49z m109 -118 c72 -56 75
-211 6 -273 -16 -14 -37 -19 -76 -19 -46 0 -59 4 -85 29 -38 37 -54 93 -45
164 6 44 14 62 40 88 28 28 40 33 83 33 35 0 57 -6 77 -22z"/>
<path d="M3610 1751 c-96 -21 -140 -68 -140 -152 0 -50 4 -61 29 -87 19 -19
55 -36 103 -50 161 -48 153 -44 156 -79 7 -67 -100 -88 -172 -33 -40 30 -87
39 -115 21 -21 -13 -4 -67 31 -96 40 -34 67 -40 173 -40 74 0 98 4 133 23 62
33 84 73 79 146 -5 84 -27 100 -182 136 -106 25 -137 49 -115 90 27 50 106 55
152 10 27 -28 36 -31 82 -28 43 3 51 6 54 24 4 29 -40 79 -88 98 -49 19 -133
27 -180 17z"/>
<path d="M4108 1745 c-105 -34 -165 -140 -156 -279 10 -156 106 -245 252 -234
93 8 188 67 198 123 3 18 -3 20 -49 23 -42 2 -57 -1 -75 -18 -28 -26 -82 -41
-120 -33 -37 7 -88 68 -88 105 l0 28 175 0 175 0 0 60 c0 68 -16 108 -64 158
-65 69 -160 95 -248 67z m125 -94 c28 -11 52 -45 61 -89 l8 -32 -116 0 c-64 0
-116 4 -116 9 0 19 32 83 50 101 22 22 72 26 113 11z"/>
<path d="M1993 1735 c-18 -7 -38 -23 -45 -34 -18 -29 -28 -26 -28 9 0 30 -1
30 -54 30 -47 0 -54 -3 -60 -22 -8 -30 -8 -239 1 -371 l6 -107 54 0 53 0 0
152 c0 133 3 157 21 195 26 53 74 73 132 54 60 -20 66 -39 69 -228 l3 -168 60
0 60 0 3 170 c3 179 -3 224 -40 270 -45 58 -161 82 -235 50z"/>
<path d="M2475 1735 c-77 -30 -134 -112 -89 -129 25 -10 96 6 115 25 24 24 84
34 115 20 25 -11 55 -66 48 -86 -3 -6 -47 -18 -98 -27 -176 -30 -231 -74 -223
-176 6 -84 66 -132 164 -132 48 0 124 28 137 49 12 19 26 12 26 -14 0 -25 2
-26 58 -23 l57 3 0 202 c0 228 -3 236 -81 277 -50 27 -171 32 -229 11z m195
-285 c0 -91 -110 -162 -178 -114 -31 22 -30 78 2 99 25 17 91 32 144 34 26 1
32 -3 32 -19z"/>
<path d="M1232 1727 c-11 -12 -5 -26 96 -247 11 -25 36 -80 56 -124 20 -43 36
-91 36 -107 0 -41 -38 -80 -85 -88 -45 -7 -63 -38 -51 -85 6 -23 11 -26 48
-26 101 0 161 62 228 235 4 11 12 31 18 45 63 149 151 395 144 402 -5 5 -33 8
-62 6 l-54 -3 -55 -167 c-31 -93 -58 -168 -61 -168 -4 0 -35 66 -69 148 -84
195 -82 192 -135 192 -24 0 -48 -6 -54 -13z"/>
</g>
</svg>
